<svg width="527" height="397" viewBox="0 0 527 397" fill="none" xmlns="http://www.w3.org/2000/svg">
<path d="M7.5256 259.401L7.55291 258.047L8.95541 257.812L9.14817 248.26L7.75631 247.968L7.7838 246.606L9.18097 246.635L13.3989 246.72C14.8341 246.749 15.9471 247.064 16.7379 247.666C17.5346 248.262 17.9213 249.141 17.8978 250.3C17.8861 250.88 17.7087 251.398 17.3654 251.854C17.0223 252.305 16.5526 252.635 15.9564 252.846C16.4697 252.968 16.8991 253.178 17.2447 253.478C17.5903 253.778 17.8496 254.141 18.0227 254.567C18.2018 254.986 18.2863 255.445 18.2763 255.943C18.252 257.144 17.8382 258.05 17.0347 258.661C16.2371 259.266 15.1354 259.554 13.7294 259.526L7.5256 259.401ZM11.1716 257.769L13.7638 257.821C14.4902 257.836 15.0501 257.68 15.4435 257.354C15.8429 257.022 16.049 256.537 16.0619 255.898C16.071 255.447 16.0055 255.062 15.8654 254.743C15.7253 254.423 15.5076 254.176 15.2123 254C14.917 253.824 14.535 253.731 14.0663 253.722L11.2544 253.665L11.1716 257.769ZM11.2865 252.075L13.536 252.12C14.1921 252.133 14.7109 251.986 15.0922 251.677C15.4735 251.368 15.6699 250.929 15.6813 250.361C15.6942 249.723 15.5045 249.247 15.1123 248.934C14.7202 248.616 14.1376 248.449 13.3643 248.433L11.3608 248.393L11.2865 252.075ZM24.8138 259.934C23.7945 259.914 23.0043 259.575 22.4432 258.919C21.8881 258.258 21.6243 257.244 21.6518 255.879L21.7341 251.802L20.6674 251.517L20.6949 250.155L21.7669 250.176L23.9813 250.221L23.8659 255.942C23.8493 256.762 23.9666 257.341 24.2176 257.68C24.4746 258.014 24.8755 258.186 25.4203 258.197C25.9007 258.207 26.3097 258.121 26.6474 257.94C26.9911 257.754 27.266 257.487 27.4723 257.14L27.5776 251.92L26.3879 251.632L26.4154 250.27L27.6105 250.294L29.8248 250.339L29.6656 258.23L30.7851 258.516L30.7577 259.869L27.6734 259.807L27.5501 258.513C27.2418 258.981 26.8536 259.339 26.3856 259.588C25.9236 259.831 25.3996 259.946 24.8138 259.934ZM33.3486 259.922L33.3759 258.569L34.6993 258.332L34.8257 252.066L33.4427 251.775L33.4702 250.413L36.8972 250.482L36.9873 251.679L37.001 251.873C37.2631 251.374 37.5784 250.994 37.9471 250.731C38.3216 250.469 38.7549 250.343 39.2469 250.353C39.411 250.357 39.5835 250.375 39.7645 250.408C39.9514 250.441 40.103 250.476 40.2195 250.514L39.9233 252.556L38.6858 252.461C38.282 252.429 37.9465 252.501 37.6792 252.678C37.4178 252.854 37.196 253.102 37.0137 253.42L36.9137 258.376L38.2265 258.666L38.1992 260.02L33.3486 259.922ZM42.3453 260.103L42.3727 258.75L43.7049 258.513L43.8313 252.248L42.4394 251.956L42.4669 250.594L45.894 250.663L45.9742 251.913C46.2938 251.468 46.6875 251.128 47.1552 250.891C47.629 250.648 48.1734 250.533 48.7885 250.546C49.4095 250.558 49.9368 250.71 50.3705 251C50.8102 251.284 51.1386 251.71 51.3557 252.277C51.6591 251.761 52.0511 251.359 52.5316 251.07C53.018 250.781 53.5834 250.643 54.2278 250.656C55.1827 250.675 55.926 251.015 56.4577 251.676C56.9952 252.338 57.2507 253.328 57.2241 254.646L57.1406 258.784L58.4621 259.075L58.4348 260.428L53.6458 260.331L53.6731 258.978L54.9262 258.74L55.0099 254.592C55.0261 253.79 54.9027 253.224 54.6397 252.897C54.3768 252.569 53.9846 252.4 53.4632 252.39C52.977 252.38 52.5726 252.527 52.25 252.831C51.9332 253.135 51.7231 253.527 51.6197 254.005L51.5255 258.671L52.7241 258.959L52.6968 260.312L48.0834 260.219L48.1107 258.866L49.3199 258.627L49.4036 254.479C49.4192 253.706 49.2927 253.149 49.0241 252.81C48.7557 252.465 48.3607 252.287 47.8394 252.276C47.4058 252.267 47.0379 252.348 46.7356 252.518C46.4392 252.687 46.1998 252.932 46.0176 253.25L45.9105 258.558L47.1441 258.846L47.1168 260.2L42.3453 260.103ZM64.0448 260.726C63.0782 260.706 62.3304 260.442 61.8015 259.933C61.2726 259.425 61.017 258.734 61.0346 257.861C61.0467 257.263 61.2213 256.742 61.5584 256.298C61.8956 255.853 62.383 255.512 63.0208 255.272C63.6587 255.027 64.4287 254.914 65.3309 254.932L66.7808 254.962L66.7969 254.162C66.8071 253.658 66.6629 253.254 66.3643 252.949C66.0715 252.644 65.6381 252.486 65.064 252.474C64.736 252.468 64.4452 252.503 64.1916 252.58C63.9382 252.651 63.7104 252.758 63.5082 252.9L63.2802 254.179L61.6546 254.146L61.6844 251.799C62.1592 251.504 62.6854 251.275 63.263 251.11C63.8408 250.94 64.4812 250.863 65.1842 250.877C66.3909 250.901 67.3342 251.204 68.014 251.787C68.6998 252.363 69.0321 253.178 69.0108 254.233L68.9262 258.424C68.9236 258.553 68.921 258.679 68.9186 258.802C68.9219 258.925 68.9283 259.046 68.9377 259.163L69.9018 259.306L69.8745 260.659L66.9835 260.601C66.929 260.394 66.8774 260.194 66.8286 260C66.7856 259.805 66.7543 259.611 66.7348 259.418C66.4104 259.81 66.0201 260.13 65.5638 260.379C65.1135 260.621 64.6072 260.737 64.0448 260.726ZM64.5802 259.022C65.0255 259.031 65.4435 258.937 65.8342 258.74C66.2251 258.537 66.5204 258.279 66.7201 257.967L66.7522 256.376L65.276 256.346C64.614 256.333 64.11 256.478 63.7639 256.782C63.4239 257.08 63.2497 257.434 63.2414 257.844C63.234 258.213 63.3454 258.499 63.5757 258.703C63.806 258.907 64.1409 259.014 64.5802 259.022Z" fill="white" fill-opacity="0.8"/>
<path d="M462.294 176.009C461.034 176.022 459.953 175.766 459.052 175.241C458.156 174.711 457.466 173.968 456.982 173.012C456.504 172.05 456.258 170.93 456.246 169.653L456.242 169.327C456.23 168.079 456.454 166.973 456.913 166.007C457.372 165.036 458.036 164.27 458.903 163.711C459.771 163.146 460.811 162.857 462.024 162.845C462.873 162.837 463.663 162.955 464.392 163.2C465.121 163.445 465.757 163.793 466.3 164.245L466.329 167.198L464.642 167.215L464.394 165.239C464.199 165.101 463.984 164.983 463.749 164.885C463.514 164.788 463.255 164.714 462.973 164.664C462.697 164.614 462.395 164.591 462.067 164.594C461.3 164.602 460.643 164.802 460.096 165.194C459.555 165.586 459.144 166.132 458.864 166.832C458.583 167.532 458.448 168.351 458.457 169.288L458.46 169.631C458.47 170.603 458.631 171.44 458.942 172.14C459.254 172.834 459.695 173.366 460.267 173.735C460.845 174.105 461.533 174.285 462.329 174.278C462.716 174.274 463.097 174.226 463.471 174.135C463.851 174.037 464.183 173.914 464.469 173.764L464.689 171.969L466.359 171.953L466.387 174.888C465.898 175.215 465.297 175.482 464.585 175.688C463.878 175.894 463.114 176.001 462.294 176.009ZM469.102 175.758L469.088 174.405L470.404 174.128L470.301 163.661L468.901 163.411L468.888 162.049L472.491 162.013L472.545 167.445C472.851 166.996 473.231 166.647 473.686 166.396C474.14 166.146 474.655 166.018 475.229 166.012C476.207 166.002 476.978 166.308 477.541 166.93C478.109 167.545 478.4 168.503 478.413 169.804L478.455 174.049L479.775 174.3L479.789 175.653L475.016 175.7L475.003 174.347L476.249 174.071L476.207 169.808C476.2 169.082 476.048 168.559 475.752 168.239C475.456 167.92 475.023 167.763 474.455 167.769C474.051 167.773 473.686 167.867 473.359 168.052C473.039 168.231 472.772 168.482 472.558 168.807L472.61 174.106L473.861 174.358L473.874 175.711L469.102 175.758ZM482.143 175.63L482.129 174.277L483.445 174L483.384 167.734L481.984 167.484L481.97 166.121L485.582 166.086L485.66 173.978L486.972 174.229L486.985 175.582L482.143 175.63ZM483.259 163.955L483.238 161.908L485.541 161.885L485.561 163.933L483.259 163.955ZM489.374 175.559L489.361 174.206L490.677 173.929L490.615 167.663L489.224 167.413L489.211 166.05L492.638 166.017L492.766 167.395C493.078 166.9 493.466 166.515 493.932 166.241C494.404 165.961 494.939 165.818 495.537 165.812C496.515 165.803 497.28 166.097 497.831 166.695C498.381 167.288 498.663 168.222 498.676 169.5L498.718 173.85L500.039 174.101L500.052 175.454L495.28 175.501L495.267 174.148L496.504 173.872L496.461 169.539C496.454 168.818 496.305 168.31 496.015 168.014C495.725 167.712 495.296 167.564 494.728 167.57C494.3 167.574 493.926 167.674 493.606 167.871C493.291 168.061 493.036 168.327 492.84 168.669L492.891 173.907L494.098 174.159L494.111 175.512L489.374 175.559ZM505.634 175.584C504.667 175.593 503.912 175.352 503.368 174.859C502.824 174.366 502.547 173.683 502.539 172.81C502.533 172.213 502.692 171.687 503.016 171.232C503.339 170.778 503.816 170.422 504.447 170.164C505.077 169.9 505.843 169.763 506.745 169.754L508.196 169.74L508.188 168.94C508.183 168.436 508.026 168.037 507.719 167.741C507.417 167.445 506.979 167.3 506.405 167.305C506.077 167.309 505.787 167.353 505.536 167.437C505.285 167.516 505.06 167.629 504.863 167.778L504.673 169.063L503.047 169.079L503.007 166.732C503.472 166.423 503.991 166.178 504.564 165.996C505.136 165.809 505.774 165.712 506.477 165.705C507.684 165.693 508.636 165.968 509.333 166.53C510.036 167.085 510.392 167.89 510.403 168.945L510.444 173.137C510.445 173.266 510.446 173.392 510.448 173.515C510.455 173.638 510.465 173.758 510.477 173.875L511.445 173.989L511.459 175.342L508.567 175.371C508.507 175.166 508.449 174.967 508.394 174.775C508.346 174.582 508.309 174.389 508.283 174.196C507.971 174.597 507.59 174.929 507.142 175.191C506.699 175.447 506.196 175.578 505.634 175.584ZM506.118 173.865C506.563 173.861 506.978 173.754 507.363 173.545C507.747 173.331 508.035 173.064 508.225 172.746L508.209 171.155L506.733 171.17C506.071 171.176 505.571 171.336 505.235 171.65C504.904 171.958 504.74 172.317 504.744 172.727C504.748 173.096 504.868 173.379 505.104 173.576C505.34 173.773 505.678 173.87 506.118 173.865Z" fill="white" fill-opacity="0.8"/>
<path d="M45.4295 234.517C44.3948 237.977 40.7661 239.94 37.3305 238.912C33.895 237.884 31.9399 234.252 32.9747 230.792C34.0094 227.332 37.6381 225.37 41.0736 226.397C44.5092 227.425 46.4643 231.058 45.4295 234.517Z" stroke="#F1F1F1" stroke-width="2"/>
<path d="M496.459 150.36C495.424 153.82 491.795 155.783 488.36 154.755C484.924 153.728 482.969 150.095 484.004 146.635C485.039 143.176 488.667 141.213 492.103 142.241C495.538 143.268 497.494 146.901 496.459 150.36Z" stroke="#F1F1F1" stroke-width="2"/>
<path d="M41.3934 225.664C41.3934 225.664 38.2458 205.117 46.0566 210.074C53.8673 215.03 62.0614 208.572 62.0614 208.572" stroke="#F1F1F1"/>
<path d="M60.6952 209.699C73.7624 197.321 83.7734 233.739 83.7734 233.739" stroke="#F1F1F1"/>
<path d="M83.4895 232.898C84.7707 236.699 86.9023 235.822 87.5804 234.023" stroke="#F1F1F1"/>
<path d="M103.64 243.123C102.949 233.557 90.3251 227.138 86.9832 235.21" stroke="#F1F1F1"/>
<path d="M103.656 243.017C106.353 260.638 126.227 217.331 151.175 226.611" stroke="#F1F1F1"/>
<path d="M150.906 226.509C161.643 231.132 187.897 214.189 177.58 212.53C167.262 210.871 184.364 201.299 188.337 194.054" stroke="#F1F1F1"/>
<path d="M188.149 194.553C192.53 180.672 240.268 203.52 230.334 210.626C220.399 217.731 239.408 218.427 244.658 222.972" stroke="#F1F1F1"/>
<path d="M244.702 222.998C269.969 237.162 254.044 191.204 313.53 208.68" stroke="#F1F1F1"/>
<path d="M313.139 208.262C366.515 234.958 305.444 171.314 335.347 144.622" stroke="#F1F1F1"/>
<path d="M334.673 145.462C355.086 118.841 365.601 175.988 413.871 124.896" stroke="#F1F1F1"/>
<path d="M412.752 126.36C426.816 109.955 420.825 135.013 460.496 122.772" stroke="#F1F1F1"/>
<path d="M458.312 123.389C472.528 117.167 459.757 143.722 483.886 145.853" stroke="#F1F1F1"/>
<path d="M40 277.555C266.869 359.762 360.835 328.443 489.825 190" stroke="#ECBB0D" stroke-dasharray="2 2"/>
<g clip-path="url(#clip0_10_24)">
<path d="M325.863 332.916C324.188 332.843 322.59 333.056 321.046 333.559C320.198 333.832 319.907 333.96 317.969 334.907L316.14 335.801L314.107 334.521C312.985 333.815 312.069 333.232 312.065 333.222C312.06 333.212 312.173 333.135 312.314 333.046C312.815 332.738 313.102 332.34 313.171 331.869C313.328 330.775 312.426 329.846 311.342 329.99C310.909 330.049 310.659 330.204 309.897 330.869C309.544 331.179 309.252 331.434 309.245 331.44C309.235 331.445 307.535 330.377 305.466 329.073C302.275 327.062 301.653 326.682 301.42 326.603C300.891 326.423 300.505 326.503 299.576 326.98C299.161 327.194 298.966 327.317 298.809 327.478C298.609 327.679 298.589 327.713 298.464 328.079C298.341 328.442 298.334 328.489 298.366 328.759C298.435 329.356 298.155 329.039 303.264 334.369C305.793 337.009 307.991 339.306 308.157 339.474L308.453 339.78L307.942 340.06C305.34 341.492 302.573 343.082 300.228 344.497L299.703 344.818L297.304 343.269C294.678 341.574 294.604 341.537 294.101 341.523C293.724 341.515 293.514 341.588 292.687 341.996C292.062 342.304 291.875 342.418 291.713 342.581C291.068 343.229 291.022 344.191 291.599 344.91C291.681 345.008 292.313 345.734 293.011 346.524C293.708 347.313 294.294 347.982 294.311 348.017C294.337 348.063 294.314 348.104 294.184 348.233C293.999 348.414 293.773 348.775 293.688 349.026C293.604 349.274 293.575 349.784 293.63 350.071C293.723 350.564 294.059 351.07 294.496 351.375C294.726 351.536 295.205 351.703 295.508 351.723C295.834 351.747 296.092 351.702 296.517 351.545C296.808 351.442 296.89 351.429 296.903 351.478C296.911 351.514 297.068 352.425 297.251 353.502C297.601 355.56 297.646 355.732 297.928 356.054C298.327 356.52 298.986 356.694 299.597 356.497C299.744 356.452 300.126 356.276 300.445 356.112C300.885 355.886 301.075 355.765 301.237 355.601C301.436 355.405 301.457 355.367 301.575 355.019C301.692 354.663 301.705 354.551 301.889 352.052C301.993 350.627 302.086 349.442 302.093 349.42C302.101 349.397 302.626 349.175 303.264 348.922C305.666 347.971 308.031 346.983 310.28 345.994C310.997 345.68 311.641 345.399 311.712 345.374L311.84 345.323L311.894 346.248C311.923 346.757 311.965 347.18 311.987 347.187C312.021 347.199 312.839 347.159 312.877 347.143C312.882 347.14 312.856 346.657 312.821 346.068C312.782 345.477 312.755 344.973 312.76 344.946C312.76 344.921 313.282 344.661 313.912 344.371C314.542 344.082 315.754 343.515 316.599 343.113C317.443 342.707 318.134 342.384 318.131 342.392C318.118 342.432 317.777 346.244 317.788 346.26C317.796 346.275 318.405 346.35 318.613 346.358C318.65 346.358 318.69 346.339 318.7 346.309C318.71 346.28 318.805 345.281 318.917 344.089L319.112 341.92L320.84 341.058C321.789 340.584 322.722 340.109 322.906 340.002C324.678 338.986 326.205 337.586 327.359 335.924C327.841 335.233 327.952 334.784 327.793 334.194C327.647 333.641 327.24 333.223 326.674 333.031C326.458 332.962 326.266 332.933 325.863 332.916ZM326.768 334.189C326.92 334.385 326.962 334.65 326.879 334.895C326.749 335.267 325.823 336.45 325.092 337.171C324.373 337.88 323.559 338.516 322.649 339.069C322.223 339.329 317.985 341.426 315.746 342.481C312.184 344.164 308.431 345.816 304.889 347.258C301.73 348.546 296.062 350.735 295.781 350.772C295.186 350.859 294.624 350.425 294.546 349.817C294.504 349.501 294.619 349.128 294.827 348.914C294.938 348.795 298.143 346.838 301.812 344.643C305.595 342.382 309.855 340.037 314.122 337.867C317.161 336.329 320.262 334.823 320.83 334.62C322.437 334.043 324.071 333.785 325.754 333.845C326.316 333.866 326.588 333.954 326.768 334.189ZM312.111 331.2C312.315 331.463 312.303 331.814 312.08 332.047C311.944 332.191 311.181 332.641 311.114 332.619C311.044 332.595 310.166 332.045 310.121 331.997C310.094 331.967 310.239 331.819 310.603 331.501C311.165 331.011 311.292 330.926 311.489 330.906C311.687 330.883 311.971 331.016 312.111 331.2ZM305.26 330.055C307.428 331.422 310.538 333.38 312.167 334.403C313.798 335.431 315.131 336.279 315.128 336.29C315.12 336.3 313.796 336.969 312.177 337.777L309.236 339.25L304.308 334.1C300.246 329.855 299.37 328.923 299.324 328.792C299.252 328.578 299.324 328.28 299.496 328.116C299.563 328.052 299.88 327.871 300.204 327.717C300.816 327.421 300.975 327.392 301.212 327.518C301.273 327.547 303.092 328.688 305.26 330.055ZM296.587 343.922C297.746 344.665 298.714 345.299 298.743 345.325C298.785 345.36 298.425 345.593 297.07 346.412C296.122 346.981 295.305 347.471 295.251 347.494C295.157 347.541 295.136 347.517 293.771 345.973C293.011 345.113 292.339 344.345 292.283 344.268C292.158 344.102 292.097 343.747 292.161 343.558C292.25 343.308 292.444 343.159 293.121 342.82C293.83 342.466 294.03 342.414 294.303 342.507C294.407 342.542 295.344 343.124 296.587 343.922ZM300.932 352.21C300.833 353.521 300.731 354.65 300.707 354.72C300.683 354.791 300.63 354.888 300.589 354.936C300.489 355.059 299.392 355.606 299.191 355.637C298.858 355.685 298.555 355.471 298.486 355.138C298.465 355.032 298.299 354.072 298.119 353C297.857 351.485 297.799 351.048 297.846 351.031C297.92 351.007 299.964 350.211 300.612 349.956C300.874 349.852 301.096 349.782 301.102 349.801C301.109 349.816 301.034 350.9 300.932 352.21Z" fill="#F1F1F1" fill-opacity="0.6"/>
<path d="M296.494 333.949L294.834 334.767L295.042 335.188L295.249 335.61L296.919 334.786L298.594 333.96L298.393 333.554C298.281 333.326 298.183 333.14 298.172 333.136C298.161 333.132 297.405 333.499 296.494 333.949Z" fill="#F1F1F1" fill-opacity="0.6"/>
<path d="M298.679 335.168C297.508 335.774 296.548 336.281 296.543 336.296C296.534 336.322 296.93 337.087 296.96 337.097C296.975 337.102 298.849 336.138 300.821 335.116L301.267 334.883L301.074 334.492C300.966 334.274 300.863 334.091 300.841 334.083C300.819 334.076 299.844 334.566 298.679 335.168Z" fill="#F1F1F1" fill-opacity="0.6"/>
<path d="M294.843 337.171L294.303 337.45L294.521 337.866L294.739 338.282L295.274 338.006C295.569 337.855 295.818 337.716 295.83 337.704C295.85 337.682 295.435 336.91 295.398 336.898C295.387 336.894 295.139 337.016 294.843 337.171Z" fill="#F1F1F1" fill-opacity="0.6"/>
<path d="M312.985 347.992L308.783 348.546L307.269 353.007L305.756 357.469L308.811 360.415L311.866 363.362L316.034 362.919L320.204 362.482L321.728 358.016L323.256 353.548L320.239 350.49C318.581 348.81 317.216 347.435 317.204 347.435C317.193 347.431 315.293 347.682 312.985 347.992ZM319.335 350.905C320.661 352.259 321.748 353.374 321.744 353.385C321.737 353.404 319.336 353.661 319.235 353.656C319.21 353.656 318.086 352.556 316.732 351.21L314.269 348.766L315.558 348.601C316.267 348.507 316.861 348.433 316.88 348.439C316.9 348.442 318.003 349.554 319.335 350.905ZM315.556 351.368C316.889 352.691 317.963 353.781 317.943 353.791C317.894 353.815 315.006 354.119 314.961 354.107C314.942 354.101 313.814 353.025 312.456 351.715L309.988 349.335L311.538 349.131C312.39 349.015 313.098 348.934 313.108 348.941C313.122 348.95 314.22 350.041 315.556 351.368ZM311.784 352.37L314.249 354.745L314.145 355.089L314.041 355.433L314.481 355.582L314.925 355.733L315.041 355.389L315.159 355.041L316.091 354.945C318.437 354.693 321.965 354.326 321.98 354.331C321.991 354.335 321.443 355.973 320.764 357.974L319.531 361.61L316.148 361.964C314.286 362.161 312.748 362.32 312.726 362.321C312.705 362.322 312.9 361.699 313.204 360.804L313.72 359.284L313.276 359.133L312.832 358.983L312.323 360.485C311.842 361.901 311.809 361.985 311.758 361.943C311.726 361.916 310.605 360.842 309.268 359.555L306.836 357.216L308.059 353.597C308.733 351.611 309.293 349.986 309.3 349.988C309.312 349.992 310.429 351.064 311.784 352.37Z" fill="#F1F1F1" fill-opacity="0.6"/>
<path d="M313.435 357.207L313.234 357.799L313.678 357.95L314.121 358.1L314.322 357.508L314.523 356.916L314.079 356.766L313.635 356.615L313.435 357.207Z" fill="#F1F1F1" fill-opacity="0.6"/>
</g>
<path d="M351.148 343V333.284H352.464V343H351.148ZM352.044 343V341.796H357.616V343H352.044ZM352.044 338.604V337.456H357.154V338.604H352.044ZM352.044 334.488V333.284H357.546V334.488H352.044ZM363.55 343L361.478 340.088L361.24 339.864L358.622 336.35H360.148L362.038 338.94L362.276 339.136L365.076 343H363.55ZM358.496 343L361.24 339.304L361.954 340.228L359.98 343H358.496ZM362.374 339.85L361.646 338.954L363.48 336.35H364.95L362.374 339.85ZM369.737 343.14C369.233 343.14 368.775 343.037 368.365 342.832C367.963 342.617 367.641 342.323 367.399 341.95C367.156 341.577 367.021 341.152 366.993 340.676V338.674C367.021 338.189 367.156 337.764 367.399 337.4C367.651 337.027 367.977 336.737 368.379 336.532C368.789 336.317 369.242 336.21 369.737 336.21C370.343 336.21 370.889 336.364 371.375 336.672C371.869 336.98 372.257 337.395 372.537 337.918C372.817 338.441 372.957 339.029 372.957 339.682C372.957 340.335 372.817 340.923 372.537 341.446C372.257 341.969 371.869 342.384 371.375 342.692C370.889 342.991 370.343 343.14 369.737 343.14ZM369.527 341.95C369.947 341.95 370.315 341.852 370.633 341.656C370.95 341.46 371.202 341.194 371.389 340.858C371.575 340.513 371.669 340.116 371.669 339.668C371.669 339.229 371.575 338.837 371.389 338.492C371.202 338.147 370.95 337.881 370.633 337.694C370.315 337.498 369.951 337.4 369.541 337.4C369.121 337.4 368.752 337.498 368.435 337.694C368.117 337.881 367.87 338.147 367.693 338.492C367.515 338.837 367.427 339.234 367.427 339.682C367.427 340.121 367.511 340.513 367.679 340.858C367.856 341.194 368.103 341.46 368.421 341.656C368.747 341.852 369.116 341.95 369.527 341.95ZM366.236 345.786V336.35H367.497V338.1L367.259 339.71L367.497 341.334V345.786H366.236ZM377.423 343.14C376.77 343.14 376.182 342.986 375.659 342.678C375.136 342.37 374.721 341.955 374.413 341.432C374.105 340.9 373.951 340.307 373.951 339.654C373.951 339.01 374.105 338.431 374.413 337.918C374.721 337.395 375.136 336.98 375.659 336.672C376.182 336.364 376.77 336.21 377.423 336.21C378.067 336.21 378.65 336.364 379.173 336.672C379.705 336.971 380.125 337.381 380.433 337.904C380.741 338.427 380.895 339.01 380.895 339.654C380.895 340.307 380.741 340.9 380.433 341.432C380.125 341.955 379.705 342.37 379.173 342.678C378.65 342.986 378.067 343.14 377.423 343.14ZM377.423 341.922C377.843 341.922 378.216 341.824 378.543 341.628C378.87 341.432 379.126 341.166 379.313 340.83C379.5 340.485 379.593 340.093 379.593 339.654C379.593 339.225 379.495 338.842 379.299 338.506C379.112 338.17 378.856 337.909 378.529 337.722C378.212 337.526 377.843 337.428 377.423 337.428C377.003 337.428 376.63 337.526 376.303 337.722C375.976 337.909 375.72 338.17 375.533 338.506C375.346 338.842 375.253 339.225 375.253 339.654C375.253 340.093 375.346 340.485 375.533 340.83C375.72 341.166 375.976 341.432 376.303 341.628C376.63 341.824 377.003 341.922 377.423 341.922ZM382.315 343V336.35H383.575V343H382.315ZM383.575 339.206L383.099 338.996C383.099 338.147 383.295 337.47 383.687 336.966C384.079 336.462 384.643 336.21 385.381 336.21C385.717 336.21 386.02 336.271 386.291 336.392C386.561 336.504 386.813 336.695 387.047 336.966L386.221 337.82C386.081 337.671 385.927 337.563 385.759 337.498C385.591 337.433 385.395 337.4 385.171 337.4C384.704 337.4 384.321 337.549 384.023 337.848C383.724 338.147 383.575 338.599 383.575 339.206ZM388.928 343V333.564H390.188V343H388.928ZM387.29 337.498V336.35H391.826V337.498H387.29ZM395.973 343V333.004H397.233V343H395.973ZM402.114 343.14C401.461 343.14 400.873 342.986 400.35 342.678C399.828 342.37 399.412 341.955 399.104 341.432C398.796 340.9 398.642 340.307 398.642 339.654C398.642 339.01 398.796 338.431 399.104 337.918C399.412 337.395 399.828 336.98 400.35 336.672C400.873 336.364 401.461 336.21 402.114 336.21C402.758 336.21 403.342 336.364 403.864 336.672C404.396 336.971 404.816 337.381 405.124 337.904C405.432 338.427 405.586 339.01 405.586 339.654C405.586 340.307 405.432 340.9 405.124 341.432C404.816 341.955 404.396 342.37 403.864 342.678C403.342 342.986 402.758 343.14 402.114 343.14ZM402.114 341.922C402.534 341.922 402.908 341.824 403.234 341.628C403.561 341.432 403.818 341.166 404.004 340.83C404.191 340.485 404.284 340.093 404.284 339.654C404.284 339.225 404.186 338.842 403.99 338.506C403.804 338.17 403.547 337.909 403.22 337.722C402.903 337.526 402.534 337.428 402.114 337.428C401.694 337.428 401.321 337.526 400.994 337.722C400.668 337.909 400.411 338.17 400.224 338.506C400.038 338.842 399.944 339.225 399.944 339.654C399.944 340.093 400.038 340.485 400.224 340.83C400.411 341.166 400.668 341.432 400.994 341.628C401.321 341.824 401.694 341.922 402.114 341.922ZM410.044 343.14C409.391 343.14 408.798 342.986 408.266 342.678C407.743 342.37 407.328 341.955 407.02 341.432C406.721 340.9 406.572 340.312 406.572 339.668C406.572 339.015 406.721 338.427 407.02 337.904C407.328 337.381 407.743 336.971 408.266 336.672C408.798 336.364 409.391 336.21 410.044 336.21C410.557 336.21 411.033 336.308 411.472 336.504C411.911 336.691 412.289 336.966 412.606 337.33L411.766 338.17C411.561 337.927 411.309 337.745 411.01 337.624C410.721 337.493 410.399 337.428 410.044 337.428C409.624 337.428 409.251 337.526 408.924 337.722C408.597 337.909 408.341 338.17 408.154 338.506C407.967 338.842 407.874 339.229 407.874 339.668C407.874 340.107 407.967 340.494 408.154 340.83C408.341 341.166 408.597 341.432 408.924 341.628C409.251 341.824 409.624 341.922 410.044 341.922C410.399 341.922 410.721 341.861 411.01 341.74C411.309 341.609 411.565 341.423 411.78 341.18L412.606 342.02C412.298 342.375 411.92 342.65 411.472 342.846C411.033 343.042 410.557 343.14 410.044 343.14ZM416.547 343.14C415.94 343.14 415.39 342.991 414.895 342.692C414.4 342.384 414.008 341.969 413.719 341.446C413.439 340.923 413.299 340.335 413.299 339.682C413.299 339.029 413.439 338.441 413.719 337.918C414.008 337.395 414.396 336.98 414.881 336.672C415.376 336.364 415.931 336.21 416.547 336.21C417.051 336.21 417.499 336.317 417.891 336.532C418.292 336.737 418.614 337.027 418.857 337.4C419.1 337.764 419.235 338.189 419.263 338.674V340.676C419.235 341.152 419.1 341.577 418.857 341.95C418.624 342.323 418.306 342.617 417.905 342.832C417.513 343.037 417.06 343.14 416.547 343.14ZM416.757 341.95C417.382 341.95 417.886 341.74 418.269 341.32C418.652 340.891 418.843 340.345 418.843 339.682C418.843 339.225 418.754 338.828 418.577 338.492C418.409 338.147 418.166 337.881 417.849 337.694C417.532 337.498 417.163 337.4 416.743 337.4C416.323 337.4 415.95 337.498 415.623 337.694C415.306 337.89 415.054 338.161 414.867 338.506C414.69 338.842 414.601 339.229 414.601 339.668C414.601 340.116 414.69 340.513 414.867 340.858C415.054 341.194 415.31 341.46 415.637 341.656C415.964 341.852 416.337 341.95 416.757 341.95ZM418.759 343V341.208L418.997 339.584L418.759 337.974V336.35H420.033V343H418.759ZM421.867 343V333.004H423.127V343H421.867ZM430.711 343.14C430.104 343.14 429.554 342.991 429.059 342.692C428.564 342.384 428.172 341.969 427.883 341.446C427.603 340.923 427.463 340.335 427.463 339.682C427.463 339.029 427.603 338.441 427.883 337.918C428.172 337.395 428.56 336.98 429.045 336.672C429.54 336.364 430.095 336.21 430.711 336.21C431.215 336.21 431.663 336.317 432.055 336.532C432.456 336.737 432.778 337.027 433.021 337.4C433.264 337.764 433.399 338.189 433.427 338.674V340.676C433.399 341.152 433.264 341.577 433.021 341.95C432.788 342.323 432.47 342.617 432.069 342.832C431.677 343.037 431.224 343.14 430.711 343.14ZM430.921 341.95C431.546 341.95 432.05 341.74 432.433 341.32C432.816 340.891 433.007 340.345 433.007 339.682C433.007 339.225 432.918 338.828 432.741 338.492C432.573 338.147 432.33 337.881 432.013 337.694C431.696 337.498 431.327 337.4 430.907 337.4C430.487 337.4 430.114 337.498 429.787 337.694C429.47 337.89 429.218 338.161 429.031 338.506C428.854 338.842 428.765 339.229 428.765 339.668C428.765 340.116 428.854 340.513 429.031 340.858C429.218 341.194 429.474 341.46 429.801 341.656C430.128 341.852 430.501 341.95 430.921 341.95ZM432.923 343V341.208L433.161 339.584L432.923 337.974V336.35H434.197V343H432.923ZM440.735 343V339.122C440.735 338.618 440.577 338.203 440.259 337.876C439.942 337.549 439.531 337.386 439.027 337.386C438.691 337.386 438.393 337.461 438.131 337.61C437.87 337.759 437.665 337.965 437.515 338.226C437.366 338.487 437.291 338.786 437.291 339.122L436.773 338.828C436.773 338.324 436.885 337.876 437.109 337.484C437.333 337.092 437.646 336.784 438.047 336.56C438.449 336.327 438.901 336.21 439.405 336.21C439.909 336.21 440.353 336.336 440.735 336.588C441.127 336.84 441.435 337.171 441.659 337.582C441.883 337.983 441.995 338.413 441.995 338.87V343H440.735ZM436.031 343V336.35H437.291V343H436.031ZM446.515 343.14C445.899 343.14 445.349 342.991 444.863 342.692C444.378 342.384 443.991 341.969 443.701 341.446C443.421 340.923 443.281 340.335 443.281 339.682C443.281 339.029 443.421 338.441 443.701 337.918C443.991 337.395 444.378 336.98 444.863 336.672C445.349 336.364 445.899 336.21 446.515 336.21C447.01 336.21 447.458 336.317 447.859 336.532C448.261 336.737 448.583 337.027 448.825 337.4C449.077 337.764 449.217 338.189 449.245 338.674V340.676C449.217 341.152 449.082 341.577 448.839 341.95C448.597 342.323 448.275 342.617 447.873 342.832C447.472 343.037 447.019 343.14 446.515 343.14ZM446.725 341.95C447.145 341.95 447.509 341.852 447.817 341.656C448.135 341.46 448.382 341.194 448.559 340.858C448.737 340.513 448.825 340.121 448.825 339.682C448.825 339.225 448.732 338.828 448.545 338.492C448.368 338.156 448.121 337.89 447.803 337.694C447.495 337.498 447.131 337.4 446.711 337.4C446.291 337.4 445.923 337.498 445.605 337.694C445.288 337.89 445.036 338.161 444.849 338.506C444.672 338.842 444.583 339.229 444.583 339.668C444.583 340.116 444.672 340.513 444.849 340.858C445.036 341.194 445.288 341.46 445.605 341.656C445.932 341.852 446.305 341.95 446.725 341.95ZM450.015 343H448.741V341.208L448.979 339.584L448.741 337.974V333.004H450.015V343ZM454.762 343V336.35H456.022V343H454.762ZM459.256 343V338.982C459.256 338.487 459.102 338.1 458.794 337.82C458.495 337.531 458.117 337.386 457.66 337.386C457.352 337.386 457.077 337.451 456.834 337.582C456.591 337.713 456.395 337.895 456.246 338.128C456.097 338.361 456.022 338.641 456.022 338.968L455.504 338.716C455.504 338.212 455.611 337.773 455.826 337.4C456.05 337.027 456.353 336.737 456.736 336.532C457.119 336.317 457.548 336.21 458.024 336.21C458.491 336.21 458.911 336.313 459.284 336.518C459.667 336.723 459.965 337.013 460.18 337.386C460.404 337.759 460.516 338.203 460.516 338.716V343H459.256ZM463.75 343V338.982C463.75 338.487 463.596 338.1 463.288 337.82C462.989 337.531 462.616 337.386 462.168 337.386C461.86 337.386 461.58 337.451 461.328 337.582C461.085 337.713 460.889 337.895 460.74 338.128C460.591 338.361 460.516 338.641 460.516 338.968L459.802 338.716C459.83 338.203 459.965 337.764 460.208 337.4C460.46 337.027 460.782 336.737 461.174 336.532C461.566 336.317 461.995 336.21 462.462 336.21C462.947 336.21 463.381 336.313 463.764 336.518C464.147 336.723 464.45 337.013 464.674 337.386C464.907 337.759 465.024 338.207 465.024 338.73V343H463.75ZM469.776 343.14C469.123 343.14 468.535 342.986 468.012 342.678C467.49 342.37 467.074 341.955 466.766 341.432C466.458 340.9 466.304 340.307 466.304 339.654C466.304 339.01 466.458 338.431 466.766 337.918C467.074 337.395 467.49 336.98 468.012 336.672C468.535 336.364 469.123 336.21 469.776 336.21C470.42 336.21 471.004 336.364 471.526 336.672C472.058 336.971 472.478 337.381 472.786 337.904C473.094 338.427 473.248 339.01 473.248 339.654C473.248 340.307 473.094 340.9 472.786 341.432C472.478 341.955 472.058 342.37 471.526 342.678C471.004 342.986 470.42 343.14 469.776 343.14ZM469.776 341.922C470.196 341.922 470.57 341.824 470.896 341.628C471.223 341.432 471.48 341.166 471.666 340.83C471.853 340.485 471.946 340.093 471.946 339.654C471.946 339.225 471.848 338.842 471.652 338.506C471.466 338.17 471.209 337.909 470.882 337.722C470.565 337.526 470.196 337.428 469.776 337.428C469.356 337.428 468.983 337.526 468.656 337.722C468.33 337.909 468.073 338.17 467.886 338.506C467.7 338.842 467.606 339.225 467.606 339.654C467.606 340.093 467.7 340.485 467.886 340.83C468.073 341.166 468.33 341.432 468.656 341.628C468.983 341.824 469.356 341.922 469.776 341.922ZM474.668 343V336.35H475.928V343H474.668ZM475.928 339.206L475.452 338.996C475.452 338.147 475.648 337.47 476.04 336.966C476.432 336.462 476.997 336.21 477.734 336.21C478.07 336.21 478.373 336.271 478.644 336.392C478.915 336.504 479.167 336.695 479.4 336.966L478.574 337.82C478.434 337.671 478.28 337.563 478.112 337.498C477.944 337.433 477.748 337.4 477.524 337.4C477.057 337.4 476.675 337.549 476.376 337.848C476.077 338.147 475.928 338.599 475.928 339.206ZM483.149 343.14C482.486 343.14 481.889 342.991 481.357 342.692C480.825 342.384 480.405 341.969 480.097 341.446C479.789 340.923 479.635 340.331 479.635 339.668C479.635 339.015 479.784 338.427 480.083 337.904C480.391 337.381 480.801 336.971 481.315 336.672C481.837 336.364 482.421 336.21 483.065 336.21C483.681 336.21 484.222 336.35 484.689 336.63C485.165 336.91 485.533 337.297 485.795 337.792C486.065 338.287 486.201 338.847 486.201 339.472C486.201 339.565 486.196 339.668 486.187 339.78C486.177 339.883 486.159 340.004 486.131 340.144H480.517V339.094H485.459L484.997 339.5C484.997 339.052 484.917 338.674 484.759 338.366C484.6 338.049 484.376 337.806 484.087 337.638C483.797 337.461 483.447 337.372 483.037 337.372C482.607 337.372 482.229 337.465 481.903 337.652C481.576 337.839 481.324 338.1 481.147 338.436C480.969 338.772 480.881 339.169 480.881 339.626C480.881 340.093 480.974 340.503 481.161 340.858C481.347 341.203 481.613 341.474 481.959 341.67C482.304 341.857 482.701 341.95 483.149 341.95C483.522 341.95 483.863 341.885 484.171 341.754C484.488 341.623 484.759 341.427 484.983 341.166L485.795 341.992C485.477 342.365 485.085 342.65 484.619 342.846C484.161 343.042 483.671 343.14 483.149 343.14Z" fill="#ECBB0D"/>
<defs>
<clipPath id="clip0_10_24">
<rect width="40" height="40" fill="white" transform="translate(295.948 319.264) rotate(18.7418)"/>
</clipPath>
</defs>
</svg>
