<svg width="45" height="45" viewBox="0 0 45 45" fill="none" xmlns="http://www.w3.org/2000/svg">
<path d="M13.125 41.25H7.5C6.50544 41.25 5.55161 40.8549 4.84835 40.1516C4.14509 39.4484 3.75 38.4946 3.75 37.5V24.375C3.75 23.3804 4.14509 22.4266 4.84835 21.7234C5.55161 21.0201 6.50544 20.625 7.5 20.625H13.125M26.25 16.875V9.375C26.25 7.88316 25.6574 6.45242 24.6025 5.39752C23.5476 4.34263 22.1168 3.75 20.625 3.75L13.125 20.625V41.25H34.275C35.1794 41.2602 36.057 40.9433 36.7461 40.3575C37.4352 39.7718 37.8894 38.9567 38.025 38.0625L40.6125 21.1875C40.6941 20.65 40.6578 20.1013 40.5063 19.5792C40.3547 19.0572 40.0914 18.5743 39.7347 18.1641C39.378 17.7539 38.9364 17.4261 38.4404 17.2035C37.9445 16.9809 37.4061 16.8688 36.8625 16.875H26.25Z" stroke="#ECBB0D" stroke-width="2" stroke-linecap="round" stroke-linejoin="round"/>
</svg>
